<?xml version="1.0" encoding="iso-8859-1"?>
<!-- Uploaded to: SVG Repo, www.svgrepo.com, Generator: SVG Repo Mixer Tools -->
<svg version="1.1" id="Layer_1" xmlns="http://www.w3.org/2000/svg" xmlns:xlink="http://www.w3.org/1999/xlink" 
	 viewBox="0 0 512 512" xml:space="preserve">
<path style="fill:#9CE0B8;" d="M352.004,52.957H249.601c-7.467,0-13.577,6.109-13.577,13.577V102.7H129.556V66.534
	c0-7.467-6.109-13.577-13.577-13.577H13.577C6.109,52.957,0,59.067,0,66.534v150.387c0,7.467,6.109,13.577,13.577,13.577H115.98
	c7.467,0,13.577-6.109,13.577-13.577v-36.166h106.468v36.166c0,7.467,6.109,13.577,13.577,13.577h102.403
	c7.467,0,13.577-6.109,13.577-13.577V66.534C365.58,59.067,359.471,52.957,352.004,52.957z"/>
<g>
	<path style="fill:#54CE8E;" d="M13.577,52.957C6.109,52.957,0,59.067,0,66.534v150.387c0,7.467,6.109,13.577,13.577,13.577h25.851
		V52.957C39.428,52.957,13.577,52.957,13.577,52.957z"/>
	<path style="fill:#54CE8E;" d="M352.004,52.957h-29.816v177.54h29.816c7.467,0,13.577-6.109,13.577-13.577V66.534
		C365.58,59.067,359.471,52.957,352.004,52.957z"/>
</g>
<g>
	<rect x="129.552" y="102.702" style="fill:#3EC579;" width="16.598" height="78.055"/>
	<rect x="219.962" y="102.702" style="fill:#3EC579;" width="16.598" height="78.055"/>
</g>
<rect x="129.552" y="161.029" style="opacity:0.37;fill:#24763D;enable-background:new    ;" width="107.005" height="19.722"/>
<path style="fill:#9CE0B8;" d="M498.157,281.503H395.754c-7.467,0-13.577,6.109-13.577,13.577v36.166H275.71v-36.166
	c0-7.467-6.109-13.577-13.577-13.577H159.73c-7.467,0-13.577,6.109-13.577,13.577v150.387c0,7.467,6.109,13.577,13.577,13.577
	h102.403c7.467,0,13.577-6.109,13.577-13.577V409.3h106.468v36.166c0,7.467,6.109,13.577,13.577,13.577h102.403
	c7.467,0,13.577-6.109,13.577-13.577V295.079C511.734,287.613,505.624,281.503,498.157,281.503z"/>
<g>
	<path style="fill:#54CE8E;" d="M159.73,281.503c-7.467,0-13.577,6.109-13.577,13.577v150.387c0,7.467,6.109,13.577,13.577,13.577
		h25.852v-177.54H159.73z"/>
	<path style="fill:#54CE8E;" d="M498.157,281.503h-29.816v177.54h29.816c7.467,0,13.577-6.109,13.577-13.577V295.079
		C511.734,287.613,505.624,281.503,498.157,281.503z"/>
</g>
<g>
	<rect x="275.71" y="331.248" style="fill:#3EC579;" width="16.598" height="78.055"/>
	<rect x="366.109" y="331.248" style="fill:#3EC579;" width="16.598" height="78.055"/>
</g>
<g>
	<rect x="275.71" y="389.576" style="opacity:0.37;fill:#24763D;enable-background:new    ;" width="107.005" height="19.722"/>
	<g style="opacity:0.37;">
		<path style="fill:#24763D;" d="M0,217.066c0,7.467,6.109,13.577,13.577,13.577h102.402c7.467,0,13.577-6.109,13.577-13.577
			v-16.313H0V217.066z"/>
		<path style="fill:#24763D;" d="M236.024,200.754v16.313c0,7.467,6.109,13.577,13.577,13.577h102.402
			c7.467,0,13.577-6.109,13.577-13.577v-16.313H236.024z"/>
	</g>
	<g style="opacity:0.37;">
		<path style="fill:#24763D;" d="M146.421,445.082c0,7.467,6.109,13.577,13.577,13.577h102.402c7.467,0,13.577-6.109,13.577-13.577
			v-16.313H146.421V445.082z"/>
		<path style="fill:#24763D;" d="M382.445,428.77v16.313c0,7.467,6.109,13.577,13.577,13.577h102.402
			c7.467,0,13.577-6.109,13.577-13.577V428.77H382.445z"/>
	</g>
</g>
</svg>